<svg viewBox="0 0 186.69 206.07" xmlns="http://www.w3.org/2000/svg"><defs><filter id="a" x="-.064" y="-.193" width="1.129" height="1.385" color-interpolation-filters="sRGB"><feGaussianBlur stdDeviation=".893"/></filter><linearGradient id="c" x1=".372" x2=".5" y1=".21" y2="1"><stop stop-color="#e3e3e3" offset="0"/><stop stop-color="#a5a5a8" offset="1"/></linearGradient><linearGradient id="d" x1=".511" y1=".853" y2=".5" spreadMethod="reflect"><stop stop-color="#fff" offset="0"/><stop stop-color="#fff" stop-opacity="0" offset="1"/></linearGradient><linearGradient id="b" x2=".5" y1=".486" y2=".486" spreadMethod="reflect"><stop stop-color="#c6c6c6" offset="0"/><stop stop-color="#e3e3e3" offset=".205"/><stop stop-color="#a5a5a8" offset="1"/></linearGradient></defs><path d="M176.06 167.87c0 15.228-37.033 27.572-82.716 27.572s-82.716-12.344-82.716-27.572 37.033-27.572 82.716-27.572 82.716 12.344 82.716 27.572z" fill="#2e3436" filter="url(#a)"/><path d="M10.662 28.604v126.36h.525c-.339 1.013-.525 1.975-.525 3.018 0 15.228 36.99 27.558 82.672 27.558 45.683 0 82.672-12.33 82.672-27.558 0-1.044-.186-2.004-.525-3.018h.525V28.604H10.666z" fill="url(#b)"/><path d="M176.06 27.572c0 15.228-37.033 27.572-82.716 27.572S10.628 42.8 10.628 27.572 47.661 0 93.344 0s82.716 12.344 82.716 27.572z" fill="url(#c)"/><path d="M10.531 119.28c.619 15.05 37.507 27.164 82.804 27.164 45.168 0 81.85-12.042 82.672-27.033-14.494 12.329-46.02 20.865-82.672 20.865-36.727 0-68.35-8.627-82.804-20.996z" fill="#565656"/><path d="M10.531 27.949c.617 15.05 37.508 27.161 82.805 27.161 45.167 0 81.852-12.039 82.67-27.03a43.21 43.21 0 0 1-2.885 2.23c-.038.05-.092.084-.13.13-9.63 11.666-41.59 20.211-79.655 20.211-38.306 0-70.488-8.697-79.916-20.471-.105-.076-.16-.189-.265-.265-.92-.667-1.814-1.272-2.624-1.965z" fill="url(#d)"/><path d="M10.524 75.106c.618 15.05 37.506 27.164 82.804 27.164 45.166 0 81.85-12.042 82.674-27.032-14.494 12.328-46.02 20.865-82.674 20.865-36.727 0-68.35-8.627-82.804-20.996z" fill="#565656"/><path d="M220.3 406.96c.147 3.584 8.932 6.468 19.719 6.468 10.756 0 19.492-2.867 19.687-6.437-.049.042-.105.084-.156.125-1.242 3.227-9.511 5.719-19.531 5.719-10.113 0-18.468-2.511-19.594-5.781-.04-.032-.086-.061-.125-.094zm0 10.52c.147 3.584 8.932 6.468 19.719 6.468 10.756 0 19.492-2.867 19.687-6.437-.049.042-.105.084-.156.125-1.242 3.227-9.511 5.719-19.531 5.719-10.113 0-18.468-2.511-19.594-5.781-.04-.032-.086-.061-.125-.094z" fill="url(#d)" transform="translate(-914.56 -1633.8) scale(4.1992)"/><path d="M11.056 164.82c4.728 13.732 39.813 24.277 82.279 24.277 42.079 0 76.8-10.464 82.016-24.014-14.766 12.043-45.892 20.34-82.016 20.34-36.314 0-67.608-8.456-82.279-20.602z" fill="#565656"/></svg>