<svg viewBox="0 0 640 480" xmlns="http://www.w3.org/2000/svg"><defs><linearGradient id="b" x1=".631" x2=".745" y1="1.101" y2="1.101" gradientTransform="matrix(2.5278 2.5256 -2.5278 2.5256 565.91 -1456.1)"><stop stop-color="#fff" offset="0"/><stop stop-color="#ffdd7c" offset="1"/></linearGradient><linearGradient id="a" x1="-1.708" x2="-1.441" y1="2.082" y2="2.082" gradientTransform="matrix(2.3454 2.3434 -2.3454 2.3434 888.99 -800.77)"><stop stop-color="#ff9191" offset="0"/><stop stop-color="#b55858" offset="1"/></linearGradient><linearGradient id="c" x1=".559" x2=".631" y1="1.331" y2="1.331" gradientTransform="matrix(2.5278 2.5256 -2.5278 2.5256 565.91 -1456.1)"><stop stop-color="#fff" stop-opacity=".827" offset="0"/><stop stop-color="#fff" stop-opacity="0" offset="1"/></linearGradient></defs><g stroke-linecap="round" stroke-linejoin="round" stroke-width="5.164"><path d="M398.52-75.198c-23.15-22.742-48.423-34.829-56.372-27.019a7.26 7.26 0 0 0-1.366 1.809l-50.373 49.487 7.603 7.47 29.582 29.062 9.504 9.337 37.185 36.531 52.036-51.121c-.028-.092-.03-.2-.059-.292l-.06-.058c.018-.019.042-.04.06-.058 7.493-8.054-4.81-32.621-27.741-55.147z" fill="url(#a)" transform="rotate(225 241.59 79.103)"/><path d="M96.055 136.349l66.031.586 7.578.067-.095-10.658-.949-106.916-73.609-.653.522 58.788.427 48.128.095 10.659z" fill="#e3dedb"/><path d="M118.914 18.992l1.043 117.574 5.33.047 2.664.024-1.043-117.574-2.665-.024-5.329-.047zm-13.327-.122l1.043 117.574 5.33.047 2.664.024-1.043-117.575-2.665-.023-5.329-.047zm26.647.237l1.043 117.574 5.329.048 2.664.023-1.042-117.574-2.665-.024-5.33-.047z"/><path d="M263.8-24.778L83.52 152.332l-34.097 115.9 10.692-3.034 107.28-30.462 180.28-177.11-16.276-15.99-5.702-5.603-15.207-14.939-1.901-1.867-5.703-5.602-1.9-1.868-15.208-14.939-5.702-5.602-8.673-8.52-7.604-7.47z" fill="url(#b)" transform="rotate(225 241.59 79.103)"/><path d="M469.122 57.78l.205 23.101.205 23.102 41.679-22.73-42.088-23.472z"/><path d="M40.979 18.551c.044-.086.12-.162.164-.248l-.166-.001.002.25z" fill="#ff9191"/><path d="M152.43 136.853l252.713 2.242-27.9-29.64 27.378-29.148-27.9-29.639 27.378-29.148-252.713-2.242.261 29.394.261 29.394.261 29.393.261 29.394z" fill="#ffc700"/><path d="M152.43 136.853l252.713 2.242-27.9-29.64-225.08-2 .26 29.393z" fill="#ffda00"/><path d="M376.723 50.672l27.38-29.148-252.714-2.242.261 29.394 225.08 2.001z" fill="#ff8a00"/><path d="M404.633 80.307L376.73 50.668l-225.079-2 .261 29.393 252.713 2.241z" fill="#ffa100"/></g><path d="M324.15-43.049c-1.518-1.492-3.287-2.66-5.16-3.405-1.874-.746-3.863-1.06-5.854-1.06-1.992 0-3.98.314-5.854 1.06-1.873.746-3.642 1.913-5.16 3.405l-28.499 27.997-169.22 166.24c-.525.516-.725 1.183-1.155 1.74l20.95.606 1.232 39.953 24.031.757 168.6-165.64L346.56.607c1.519-1.492 2.707-3.23 3.466-5.07.76-1.84 1.079-3.794 1.079-5.751 0-1.957-.32-3.91-1.079-5.75-.759-1.841-1.947-3.579-3.466-5.07l-22.414-22.02z" fill="url(#c)" transform="rotate(225 241.59 79.103)"/><path d="M469.327 80.881l.14 15.366 41.743-14.994-41.883-.372z" fill="#fff" opacity=".8"/></svg>